<?xml version="1.0" encoding="utf-8"?>
<!-- Generator: Adobe Illustrator 16.0.0, SVG Export Plug-In . SVG Version: 6.00 Build 0)  -->
<!DOCTYPE svg PUBLIC "-//W3C//DTD SVG 1.1//EN" "http://www.w3.org/Graphics/SVG/1.1/DTD/svg11.dtd">
<svg version="1.1" id="Layer_1" xmlns="http://www.w3.org/2000/svg" xmlns:xlink="http://www.w3.org/1999/xlink" x="0px" y="0px"
	 width="1000px" height="800px" viewBox="0 0 800 600" enable-background="new 0 0 800 600" xml:space="preserve">
<g>
	<g>
		<path fill="#FFFFFF" d="M351,351.987c0-33.663,0-67.325,0-100.987c33.662,0,67.325,0,100.987,0c0,33.663,0,67.324,0,100.987
			C418.325,351.987,384.662,351.987,351,351.987z M400.511,341.946c23.507,0.156,43.145-18.338,43.267-40.746
			c0.122-22.332-19.312-41.492-42.457-41.86c-23.01-0.367-43.319,19.133-43.275,41.549
			C358.089,323.207,377.313,341.793,400.511,341.946z"/>
		<path fill-rule="evenodd" clip-rule="evenodd" d="M400.511,341.946c-23.198-0.153-42.421-18.739-42.465-41.058
			c-0.044-22.416,20.265-41.916,43.275-41.549c23.146,0.368,42.579,19.528,42.457,41.86
			C443.655,323.608,424.018,342.103,400.511,341.946z M403.242,289.847c-1.329,0-2.74-0.283-3.968,0.07
			c-1.638,0.471-4.477,1.521-4.436,2.173c0.118,1.875,0.955,4.46,2.38,5.315c2.002,1.202,4.805,1.55,7.236,1.462
			c6.986-0.251,9.057,1.842,8.037,8.796c-1.712,11.679-8.798,16.657-20.315,14.476c-1.103-0.209-3.029,0.421-3.479,1.253
			c-0.456,0.843,0.034,2.971,0.834,3.572c2.343,1.763,4.881,3.643,7.64,4.409c10.062,2.798,26.075-3.507,31.895-12.219
			c3.134-4.691,4.061-9.872,0.53-14.45C422.992,296.136,414.653,290.096,403.242,289.847z M389.977,294.271
			c-0.035-11.125,5.989-16.926,17.049-16.656c1.093,0.026,2.949-0.977,3.136-1.801c0.229-1.007-0.636-2.984-1.545-3.395
			c-2.817-1.271-5.931-2.929-8.841-2.775c-11.905,0.63-21.302,6.238-27.595,16.36c-4.156,6.685-2.312,14.006,4.172,18.361
			c3.027,2.032,6.23,3.908,9.573,5.343c7.171,3.078,14.556,3.336,21.856,0.369c3.426-1.392,3.685-4.209,0.699-6.387
			c-2.496-1.821-4.895-2.54-8.263-1.223c-7.41,2.899-9.938,0.884-10.229-7.198C389.979,294.938,389.99,294.604,389.977,294.271z"/>
		<path fill-rule="evenodd" clip-rule="evenodd" fill="#FFFFFF" d="M403.242,289.847c11.411,0.249,19.75,6.289,26.355,14.858
			c3.53,4.578,2.604,9.759-0.53,14.45c-5.819,8.712-21.832,15.017-31.895,12.219c-2.759-0.767-5.297-2.646-7.64-4.409
			c-0.8-0.602-1.29-2.729-0.834-3.572c0.449-0.832,2.375-1.462,3.479-1.253c11.517,2.182,18.603-2.797,20.315-14.476
			c1.02-6.954-1.051-9.047-8.037-8.796c-2.431,0.088-5.234-0.261-7.236-1.462c-1.425-0.854-2.262-3.44-2.38-5.315
			c-0.042-0.652,2.798-1.703,4.436-2.173C400.502,289.563,401.913,289.847,403.242,289.847z"/>
		<path fill-rule="evenodd" clip-rule="evenodd" fill="#FFFFFF" d="M389.983,294.271c0.006,0.333-0.004,0.666,0.008,0.999
			c0.29,8.082,2.818,10.098,10.229,7.198c3.368-1.317,5.767-0.599,8.263,1.223c2.985,2.178,2.727,4.995-0.699,6.387
			c-7.301,2.967-14.686,2.709-21.856-0.369c-3.343-1.435-6.546-3.311-9.573-5.343c-6.484-4.354-8.328-11.676-4.172-18.361
			c6.292-10.122,15.69-15.73,27.595-16.36c2.91-0.154,6.023,1.503,8.841,2.775c0.909,0.411,1.773,2.388,1.545,3.395
			c-0.187,0.824-2.043,1.827-3.136,1.801C395.966,277.345,389.942,283.147,389.983,294.271z"/>
	</g>
</g>
</svg>
